<svg width="354" height="64" viewBox="0 0 354 64" fill="none" xmlns="http://www.w3.org/2000/svg">
<path d="M72.0705 58.8807C68.2589 58.0921 66.4626 57.1721 63.9215 54.8062C59.9785 51.126 58.7079 47.6649 58.7079 40.655C58.7079 35.3538 59.3213 32.7689 61.249 29.6144C64.4035 24.5322 71.3257 21.334 77.5908 21.9912C80.8767 22.2978 84.6884 23.7874 86.5285 25.4085C88.5 27.1171 90.3401 30.9288 90.1648 32.8565L90.0334 34.3023L87.0542 34.4337C83.8997 34.5652 82.8045 34.127 82.8045 32.7689C82.8045 32.3308 82.1035 31.3669 81.271 30.6221C77.0651 26.9419 70.6247 28.3877 67.6894 33.6889C66.4626 35.8795 66.375 36.3614 66.4188 40.655C66.4188 44.1162 66.5941 45.6058 67.1636 46.6572C68.3465 48.8917 70.5371 51.1699 72.202 51.827C74.3926 52.7909 78.8176 52.6595 81.2272 51.608L83.2426 50.7755V48.103V45.4743H79.5186H75.7946V42.4075V39.3407H83.0235H90.2525V46.7449V54.1491L88.8505 55.3758C86.879 57.0406 83.5493 58.3988 80.1319 59.0122C76.6708 59.5818 75.5317 59.5817 72.0705 58.8807Z" fill="#154515"/>
<path d="M261.907 58.837C258.49 58.0922 255.949 56.7778 253.715 54.5872C249.991 50.907 248.632 46.482 248.939 39.2531C249.114 35.31 249.333 34.2585 250.473 31.805C252.181 28.1248 254.328 25.8028 257.482 24.0942C265.456 19.8882 276.059 22.1226 280.615 28.9573C284.339 34.5652 284.909 43.2837 281.973 49.6803C279.783 54.4996 275.621 57.6102 269.925 58.837C266.289 59.5818 265.369 59.5818 261.907 58.837ZM270.1 51.6518C272.247 50.688 274.394 48.3221 275.182 46.0439C275.489 45.1239 275.796 42.6266 275.796 40.436C275.796 36.931 275.664 36.23 274.481 33.8642C272.028 28.9573 266.814 27.2048 261.951 29.6144C258.446 31.3231 256.738 34.8719 256.738 40.4798C256.738 46.0877 258.534 49.7679 262.083 51.5642C264.405 52.7033 267.691 52.7471 270.1 51.6518Z" fill="#154515"/>
<path d="M300.769 58.6617C295.511 57.2597 291.393 53.7547 289.509 49.0669C288.633 46.8763 288.501 45.8248 288.501 40.655C288.501 34.9156 288.545 34.6528 289.859 31.8488C291.743 27.9057 293.934 25.6275 297.527 23.8312C307.165 19.0119 319.257 23.9627 319.914 32.9879L320.046 34.7404H316.628C313.211 34.7404 313.167 34.7404 312.598 33.426C310.057 27.4676 301.689 27.0295 297.921 32.6812C295.424 36.449 295.204 43.2399 297.483 47.6649C300.374 53.2728 308.041 54.1491 311.546 49.2859C312.247 48.3221 312.817 47.2706 312.817 46.9201C312.817 46.482 313.693 46.3505 316.585 46.3505H320.353L320.046 47.9716C319.257 52.1337 316.366 55.6387 312.072 57.6102C309.575 58.7493 303.31 59.3627 300.769 58.6617Z" fill="#154515"/>
<path d="M96.9119 40.5673L97.0433 22.473H105.806C113.999 22.5168 114.7 22.5607 116.846 23.5245C119.826 24.8389 122.016 27.2923 122.849 30.1839C123.725 33.0317 123.725 34.6527 122.936 37.3253C122.104 39.9978 120.395 42.1884 118.248 43.2837C116.671 44.1161 116.583 44.2913 117.022 45.1676C117.328 45.6933 118.993 48.8478 120.746 52.1337C122.542 55.4196 123.988 58.2235 123.988 58.355C123.988 58.4864 122.148 58.6178 119.957 58.6178H115.882L112.553 52.1337L109.223 45.6933L106.726 45.5619L104.272 45.4305V52.046V58.6178H100.548H96.8243L96.9119 40.5673ZM113.779 38.0262C115.882 36.6681 116.364 32.7688 114.7 30.7973C113.517 29.4391 111.282 28.8696 107.252 28.8257H104.272V33.9079V38.9901L108.566 38.8148C111.151 38.7272 113.166 38.4205 113.779 38.0262Z" fill="#154515"/>
<path d="M129.683 40.655V22.736L131.129 22.4731C131.874 22.3417 136.956 22.254 142.389 22.3417L152.246 22.4731L152.378 25.2771C152.465 26.8981 152.29 28.3001 152.027 28.563C151.721 28.8696 148.96 29.0887 144.448 29.0887L137.35 29.1763L137.219 33.1632L137.087 37.1063L143.791 37.2377L150.494 37.3691L150.625 40.5674L150.757 43.7219H143.922H137.131V47.884V52.0461H144.798H152.465V55.332V58.6179H141.074H129.683V40.655Z" fill="#154515"/>
<path d="M158.555 58.4426C158.468 58.3549 158.468 50.2059 158.599 40.3483L158.818 22.473H169.99H181.162L181.294 25.2332C181.469 29.3953 181.6 29.3515 173.101 29.2201L165.828 29.0886L165.697 33.1193L165.565 37.15H172.619H179.629V40.4359V43.7218H172.619H165.609V47.8839V52.046H173.495H181.381V55.3319V58.6178H170.078C163.857 58.6178 158.643 58.5302 158.555 58.4426Z" fill="#154515"/>
<path d="M187.164 40.5674L187.296 22.4731L190.363 22.3416C192.028 22.254 193.824 22.2978 194.306 22.4293C194.788 22.5607 196.014 24.0065 197.11 25.8466C198.205 27.5991 201.535 32.9003 204.558 37.5882L210.078 46.1315L210.209 34.1708L210.297 22.2102L213.714 22.3416L217.088 22.4731L217.219 40.5674L217.307 58.6179H213.495H209.64L204.12 50.1622C201.053 45.5619 197.723 40.3921 196.672 38.6835L194.744 35.6166L194.612 47.1391L194.525 58.6179H190.801H187.077L187.164 40.5674Z" fill="#154515"/>
<path d="M224.755 40.4359V22.2102L228.391 22.3416L231.984 22.4731L232.115 37.2815L232.203 52.0461H239.563H246.924L246.88 55.2443L246.836 58.3988L235.796 58.5302L224.755 58.6179V40.4359Z" fill="#154515"/>
<path d="M325.084 40.2169V22.2102L328.721 22.3416L332.313 22.4731V30.2716C332.313 34.5213 332.445 37.9825 332.62 37.9387C332.795 37.851 335.687 34.3023 339.06 30.0525L345.238 22.254H349.4C351.678 22.254 353.562 22.3416 353.562 22.4731C353.562 22.6045 350.977 25.9342 347.823 29.8335C344.668 33.6889 341.996 37.1501 341.864 37.4567C341.601 38.1139 341.952 38.6397 348.83 49.2859C351.678 53.6671 354 57.4788 354 57.7416C354 58.355 345.982 58.3112 345.369 57.6978C345.106 57.435 343.047 54.1929 340.769 50.4689C338.534 46.7887 336.519 43.7218 336.256 43.7218C336.037 43.7218 335.117 44.5543 334.285 45.5619C332.751 47.402 332.751 47.4458 332.532 52.7033L332.313 57.9607L328.721 58.0921L325.084 58.2235V40.2169Z" fill="#154515"/>
<path d="M19.4435 63.4871C18.2936 62.9329 11.8372 59.3029 10.2301 58.2915C4.81287 54.8971 1.97264 51.5027 0.601014 46.7644C0.310063 45.7807 0.21308 45.0187 0.116096 43.1621C-0.0363065 40.5436 -0.0363073 29.6814 0.102241 29.0441C0.185369 28.6146 0.18537 28.6146 8.98316 24.0841C10.7704 23.1697 12.8625 22.089 13.6245 21.6872C14.3865 21.2854 16.2431 20.3156 17.7671 19.5397L20.5242 18.1127L21.0922 18.4036C21.9928 18.8608 25.2902 20.6065 26.5095 21.2577C27.1191 21.5902 29.5852 22.8787 31.9821 24.1118C39.1727 27.8249 40.6552 28.6285 40.7937 28.9333C40.8492 29.0579 40.9184 32.0229 40.96 35.5281C41.0293 43.8549 40.863 45.7668 39.7962 48.4685C38.0505 52.8743 35.5151 55.5067 29.5575 59.0951C28.0058 60.0372 22.1729 63.2377 21.3832 63.5841C20.538 63.9582 20.4411 63.9582 19.4435 63.4871ZM18.1966 51.8906C17.8502 50.2281 17.2129 48.9534 15.7859 47.0415C15.1624 46.2102 13.8739 44.8247 9.85601 40.7098C7.91634 38.7286 7.73623 38.5069 7.73623 38.0497C7.73623 37.5925 7.76394 37.5509 8.13802 37.5509C8.35969 37.5509 8.84461 37.731 9.21869 37.9527C9.57892 38.1605 10.5072 38.7147 11.2692 39.1581C13.5552 40.5159 16.0075 42.6495 17.6424 44.7416C18.0026 45.2126 18.3351 45.559 18.3629 45.5313C18.4044 45.4897 18.3213 45.1018 18.1966 44.6584C17.4346 41.929 16.2708 40.0171 14.0124 37.7865C11.9619 35.7498 10.1608 34.7246 7.43142 34.0318C5.51946 33.5469 5.14538 33.5053 5.03455 33.7824C4.84058 34.2535 4.78516 38.3129 4.95142 39.546C5.69957 45.0879 9.17713 48.8703 15.5226 51.0594C17.2545 51.6551 17.3376 51.7105 17.8641 52.4448C18.1135 52.7912 18.3351 53.0406 18.3629 53.0129C18.3906 52.9852 18.3213 52.4864 18.1966 51.8906ZM25.6643 50.9347C28.8232 49.8678 30.2087 49.0781 32.0098 47.3047C33.6308 45.7114 34.7669 43.8964 35.4458 41.8459C36.0693 39.9201 36.3187 36.7335 35.9861 34.8215L35.8337 33.9487H35.2518C34.4483 33.9625 32.4393 34.4198 31.3309 34.8631C28.9756 35.8052 26.8974 37.5232 24.9854 40.1002C23.6 41.9845 22.6994 44.2428 22.3807 46.7089C22.3115 47.1939 22.4084 47.1107 24.7499 44.7554C26.1077 43.4115 27.9781 41.6381 28.934 40.8207C29.89 39.9894 31.0261 39.0195 31.4556 38.6455C32.0237 38.1467 32.3562 37.9666 32.661 37.9666C33.0489 37.9666 33.0905 38.0081 33.0905 38.3961C33.0905 38.9087 32.5086 39.9201 30.9291 42.1369C29.4605 44.1874 28.4907 45.3512 26.3986 47.5818C24.1403 49.9787 23.0319 51.3364 22.9349 51.7937C22.8934 52.0015 22.8102 52.2924 22.7548 52.4448C22.6855 52.6111 22.8657 52.4864 23.1843 52.1539C23.6692 51.669 23.9879 51.5027 25.6643 50.9347ZM18.7923 36.1655C18.3906 35.3757 17.5593 34.0734 16.5617 32.6602C15.7997 31.6072 15.4949 31.053 15.4949 30.7621C15.4949 30.3742 15.5365 30.3464 15.9937 30.3464C16.4093 30.3464 16.7418 30.5266 17.8641 31.3856L19.208 32.4247L19.2911 31.8982C19.3327 31.6211 19.4297 30.4157 19.5128 29.2381C19.7068 26.6057 19.8037 26.3286 20.4134 26.3286C20.9537 26.3286 20.8983 26.1346 21.3139 29.3073C21.4663 30.5266 21.6326 31.7319 21.6741 31.9675L21.7434 32.4247L23.1566 31.344C23.9325 30.7621 24.5975 30.2356 24.6114 30.1802C24.6391 30.1109 24.9023 30.0694 25.2071 30.0694C25.7197 30.0694 25.7474 30.0971 25.7474 30.485C25.7474 30.7621 25.4981 31.2193 24.9439 31.9675C23.9186 33.3252 22.8657 34.9185 22.3807 35.8329C22.0621 36.4287 22.0067 36.7196 22.0067 37.6202V38.687L22.5054 38.0081C23.9602 36.0962 26.4125 33.727 27.4239 33.2698L27.9227 33.0343L27.7425 32.3554C27.41 31.053 26.4679 29.058 25.5673 27.714C24.5836 26.2454 22.0898 23.71 20.9537 22.9896L20.5242 22.7263L19.6098 23.4191C17.5454 24.9708 16.0491 26.6472 14.6913 28.9055C14.1233 29.8477 13.001 32.4108 13.001 32.7433C13.001 32.8403 13.3613 33.1451 13.8046 33.4222C15.4256 34.4613 17.8225 36.8582 18.6261 38.2437L18.8893 38.6732L18.9309 37.5925C18.9586 36.9136 18.9032 36.3871 18.7923 36.1655Z" fill="#154515"/>
<path d="M4.06476 23.5853C4.02319 23.5438 3.99548 21.5902 3.99548 19.2349C3.99548 16.0483 4.0509 14.6213 4.21716 13.6099C5.28398 6.84874 10.147 1.79175 17.019 0.26772C18.543 -0.0647946 22.1868 -0.0925043 23.697 0.212301C27.6733 1.04359 31.3033 3.28806 33.617 6.36382C34.5176 7.55534 35.6675 9.71668 36.1247 11.0745C36.8175 13.0834 36.859 13.5406 36.9283 18.7639C36.9699 21.4933 36.9422 23.71 36.8729 23.6823C36.1109 23.3498 32.0791 21.23 31.7605 20.9806L31.3171 20.662L31.2617 17.2953C31.2063 14.2611 31.1647 13.8454 30.8876 13.028C29.6545 9.4673 27.23 7.13969 23.5307 5.98975C23.2675 5.90662 22.3946 5.76807 21.5911 5.68494C20.1917 5.54639 18.9171 5.65723 17.2268 6.04517C16.4509 6.21142 14.5944 7.1674 13.7215 7.83243C12.1837 8.99623 10.7428 10.9498 10.1609 12.6816C9.62053 14.2472 9.55125 14.8707 9.5374 17.7525C9.5374 19.803 9.49583 20.662 9.37114 20.8144C9.14946 21.0915 4.1756 23.6962 4.06476 23.5853Z" fill="#154515"/>
<path d="M18.5429 54.5091C18.0857 53.6224 16.9496 52.1538 16.6448 52.0291C16.5063 51.9737 15.7997 51.7243 15.0792 51.4749C11.4909 50.228 8.95543 48.5793 7.20973 46.3764C5.82425 44.6307 4.86827 42.3862 4.56346 40.1279C4.31408 38.3683 4.42492 33.339 4.71587 33.0481C4.74358 33.0204 5.27006 33.0758 5.86581 33.1866C9.8837 33.8932 12.045 34.9739 14.5805 37.537C17.0328 39.9893 18.2243 42.1922 18.8893 45.4343C19.014 46.0439 19.0971 46.8197 19.0694 47.1384L19.0279 47.7341L18.2381 46.5565C16.3539 43.744 13.6938 41.2501 10.715 39.4906C10.0361 39.0888 9.1771 38.5761 8.81688 38.3683C8.4428 38.1466 8.15185 38.0081 8.15185 38.0497C8.15185 38.0912 9.10783 39.1026 10.2716 40.2941C15.5226 45.6836 16.1599 46.3902 17.2544 48.1498C18.2797 49.7569 18.7785 51.4749 18.917 53.8718C18.9586 54.5646 18.9724 55.1465 18.9447 55.1465C18.917 55.1465 18.7369 54.8555 18.5429 54.5091Z" fill="#73A915"/>
<path d="M22.0066 54.5646C22.0066 54.3152 22.0759 53.7056 22.1452 53.2068C22.4916 51.0039 22.6301 50.7545 25.4149 47.7896C28.8232 44.1596 30.6797 41.7628 32.6471 38.4515C32.7302 38.3129 32.3146 38.6593 29.4189 41.1809C26.4402 43.7717 23.5722 46.6396 22.1729 48.4408L21.8542 48.8426L21.9374 47.2493C22.1036 43.5777 23.3644 40.7791 26.1769 37.7587C28.6154 35.154 31.6496 33.727 35.2518 33.4915L36.2494 33.436L36.4018 34.3782C36.6096 35.6805 36.5957 38.4792 36.3463 40.0448C35.8891 43.1067 34.6422 45.5451 32.4254 47.7203C30.6382 49.4799 29.2665 50.2696 26.1492 51.3364C25.1378 51.6828 24.1541 52.0569 23.9879 52.1677C23.6276 52.4032 23.0319 53.2622 22.4916 54.2875C22.2837 54.6754 22.0898 55.0079 22.0621 55.0079C22.0343 55.0079 22.0066 54.8001 22.0066 54.5646Z" fill="#73A915"/>
<path d="M18.6815 39.4075C17.4623 37.3431 15.3287 35.0986 13.3197 33.7824L12.4469 33.2144L12.5439 32.6463C12.6685 31.8428 13.583 29.6537 14.2757 28.4899C15.675 26.1623 17.1021 24.5967 19.3743 22.8649L20.4965 22.0059L21.1477 22.4354C22.5331 23.3221 24.93 25.7328 25.983 27.2984C26.939 28.7116 27.9504 30.9422 28.2413 32.2307C28.3245 32.6048 28.4214 33.0204 28.463 33.1451C28.5184 33.3114 28.366 33.4499 27.9365 33.6439C26.5649 34.2535 23.4476 37.4539 22.2561 39.4629C21.9235 40.0032 21.6326 40.4604 21.591 40.4604C21.5495 40.4604 21.5356 39.4767 21.5633 38.2852C21.6049 36.2347 21.6326 36.0546 21.979 35.4034C22.45 34.5029 23.5168 32.8957 24.5144 31.5657C25.318 30.485 25.4149 30.3049 24.9577 30.679C24.3204 31.1916 21.4386 33.3945 21.3971 33.3945C21.3694 33.3945 21.3001 32.9788 21.2447 32.4662C21.1061 31.0115 20.5104 26.855 20.4411 26.7996C20.4134 26.7581 20.3164 26.9105 20.2333 27.1183C20.067 27.5755 19.6098 33.0758 19.7206 33.2559C19.97 33.6577 19.3188 33.2559 17.8087 32.0783C16.8804 31.3578 16.0768 30.7621 16.0214 30.7621C15.9521 30.7621 16.3816 31.4271 16.9774 32.2584C17.9749 33.6577 18.8201 34.9739 19.208 35.7498C19.3327 35.9992 19.3743 36.7196 19.3465 38.2852L19.305 40.4604L18.6815 39.4075Z" fill="#73A915"/>
</svg>
