<svg width="1024" height="1024" viewBox="0 0 1024 1024" fill="none" xmlns="http://www.w3.org/2000/svg">
<path d="M125.892 95.2319C135.535 103.088 147.022 109.55 157.521 116.221C171.572 125.148 185.436 134.299 199.351 143.433L392.349 268.306C408.188 278.667 424.375 288.459 440.183 298.889C446.008 302.733 452.897 306.413 457.913 311.222C455.937 315.845 453.164 320.207 450.829 324.664C447.422 331.169 444.212 337.784 440.83 344.305C428.9 367.076 417.136 389.932 405.538 412.874C416.382 420.074 428.033 426.041 438.705 433.546C462.764 409.154 487.913 385.773 512.18 361.571L546.412 327.9C552.786 321.652 558.764 314.656 566.053 309.47C568.55 307.693 571.687 307.06 574.644 306.418C597.572 301.443 623.756 310.462 642.91 322.757C647.783 318.665 656.607 309.25 663.104 309.703C675.017 310.533 694.804 328.956 702.356 337.608C711.048 347.564 729.141 372.837 727.792 386.01C727.134 392.43 716.391 399.152 711.682 402.91C716.08 413.805 719.622 424.548 720.524 436.351C721.269 446.094 720.869 458.845 715.653 467.445C712.705 472.307 707.805 476.191 703.799 480.172C698.408 485.528 692.983 491.036 688.041 496.802L987.286 639.655C976.386 666.009 967.885 693.736 958.392 720.632L903.78 875.764C898.857 892.805 891.895 909.552 885.594 926.13C879.745 926.937 873.817 927.249 867.926 927.584C844.444 909.24 819.91 892.323 795.745 874.914L672.731 786.154L605.658 738.675C598.213 733.363 590.51 728.331 583.188 722.858C581.747 721.78 579.992 720.226 579.522 718.393C579.072 716.638 580.177 713.898 580.787 712.271C584.093 703.462 588.714 694.758 592.59 686.165C599.918 669.904 607.161 653.605 614.32 637.268C602.193 630.315 590.418 623.234 578.984 615.172C570.454 623.615 562.965 633.855 553.189 640.845C556.085 637.58 558.178 634.644 560.063 630.679C572.038 605.495 570.022 579.322 560.85 553.739C547.47 516.418 517.446 482.368 481.452 465.501C464.417 457.518 444.033 453.101 425.88 459.85C421.546 461.462 417.78 463.813 413.915 466.309C404.346 472.491 399.428 477.715 394.642 488.094C396.665 479.122 401.885 473.117 407.856 466.447L385.397 451.762C382.473 460.198 377.032 468.613 372.876 476.546C365.518 490.588 358.411 504.782 350.93 518.756C349.874 520.729 348.434 523.198 345.923 523.496C342.458 523.907 335.045 518.999 332.146 517.241C306.38 501.621 281.168 484.888 255.776 468.659C211.656 440.828 167.714 412.718 123.949 384.33C103.73 371.613 83.6322 358.709 63.6553 345.616C56.4127 340.948 45.3125 335.174 39.1952 329.495C42.1127 319.193 46.5055 309.142 50.1359 299.053L75.0774 230.341L108.438 139.885C113.77 125.77 119.478 108.619 125.892 95.2319Z" fill="#000002"/>
<path d="M683.229 502.684C715.97 518.875 749.326 533.99 782.318 549.675C845.926 579.87 909.293 610.562 972.418 641.753C938.181 732.968 904.971 824.556 872.789 916.516C872.647 916.886 872.478 917.355 872.288 917.695C871.671 918.793 871.52 918.933 870.375 919.238C867.435 918.333 815.434 880.022 808.394 874.949L646.491 759.26C626.447 745.154 606.916 730.536 586.53 716.894C592.207 701.814 599.454 687.189 606.16 672.543L630.816 617.816L660.499 552.448C667.964 535.797 675.129 519.043 683.229 502.684Z" fill="#FEFEFE"/>
<path d="M855.639 592.225C872.827 600.27 891.109 608.794 907.6 618.156C896.381 645.948 887.157 674.615 875.737 702.31C873.783 702.767 829.692 677.605 824.506 674.716C835.19 647.376 845.308 619.709 855.639 592.225Z" fill="#000002"/>
<path d="M795.352 563.005C812.655 571.937 830.429 580.113 847.927 588.669C838.881 615.75 827.017 643.118 816.58 669.819C812.409 668.949 805.437 664.168 801.473 662.021C789.167 655.493 776.961 648.783 764.855 641.89L785.608 589.02C788.909 580.574 793.212 571.812 795.352 563.005Z" fill="#000002"/>
<path d="M914.897 621.149C920.3 623.097 925.659 626.249 930.84 628.796C941.391 633.947 951.913 639.157 962.405 644.427C952.494 674.177 940.832 703.377 930.087 732.831C913.886 724.648 898.28 715.45 882.423 706.633C886.973 696.308 890.444 685.154 894.379 674.565C901.045 656.693 907.884 638.888 914.897 621.149Z" fill="#000002"/>
<path d="M823.33 678.449C839.732 688.587 857.131 696.973 873.552 707.038C870.608 715.836 866.72 724.485 863.395 733.167C856.281 751.414 849.582 769.812 843.299 788.361C838.781 786.056 834.419 782.78 830.109 780.049C817.968 772.358 805.947 764.139 793.28 757.347C803.71 731.252 813.587 704.809 823.33 678.449Z" fill="#000002"/>
<path d="M735.292 533.508C743.537 536.91 751.484 541.307 759.493 545.251C769.055 549.96 778.808 554.377 788.153 559.504C783.433 570.077 779.577 581.08 775.084 591.759C768.887 606.488 761.579 621.6 756.984 636.88L756.084 637.254C739.376 627.976 722.515 618.539 705.519 609.827C707.731 602.867 710.822 596.045 713.518 589.251L727.235 554.722C730.036 547.753 733.262 540.747 735.292 533.508Z" fill="#000002"/>
<path d="M880.728 711.081C896.449 718.082 913.364 728.529 928.554 736.946C923.593 751.152 918.118 765.228 912.96 779.371C907.84 793.411 903.014 807.582 897.535 821.485C892.783 820.237 856.937 796.888 849.896 792.449C860.768 765.518 870.269 738.16 880.728 711.081Z" fill="#000002"/>
<path d="M848.466 797.222C864.806 805.745 880.115 816.229 896.049 825.485C893.401 835.462 889.088 845.453 885.574 855.174L865.794 910.23C863.296 909.796 824.01 880.432 818.876 876.783C829.73 850.787 839.181 823.82 848.466 797.222Z" fill="#000002"/>
<path d="M792.068 760.676C808.24 771.382 825.072 781.113 840.901 792.338C838.784 800.058 835.383 807.762 832.586 815.271C825.652 833.893 818.168 852.386 811.521 871.098C807.437 869.296 803.214 865.661 799.518 863.086C787.205 854.36 774.986 845.505 762.86 836.521C768.665 822.819 773.5 808.722 778.706 794.784C782.973 783.361 787.596 772.025 792.068 760.676Z" fill="#000002"/>
<path d="M763.184 646.192C780.553 654.695 797.496 664.77 814.444 674.111C810.904 680.91 808.722 688.623 806.001 695.779C798.907 714.432 792.228 733.37 784.553 751.786C779.017 749.118 773.555 744.947 768.339 741.643C756.674 734.305 745.067 726.878 733.516 719.362C743.456 694.991 752.892 670.416 763.184 646.192Z" fill="#000002"/>
<path d="M731.974 723.487L782.936 755.701C773.649 780.615 763.178 805.09 754.53 830.245C748.737 827.257 742.955 822.145 737.611 818.327C726.415 810.328 714.843 802.594 704.069 794.037L731.974 723.487Z" fill="#000002"/>
<path d="M704.123 613.483C720.782 623.239 738.176 631.646 754.666 641.7C744.622 665.76 735.378 690.141 725.703 714.351L725.603 714.392L725.085 713.99L725.299 714.686C720.882 713.186 715.831 709.058 711.778 706.554L675.846 684.252C680.302 674.9 683.891 665.038 687.696 655.406C693.321 641.49 698.796 627.516 704.123 613.483Z" fill="#000002"/>
<path d="M674.423 688.524C690.615 696.747 708.242 709.066 723.998 718.789C720.409 728.321 716.215 737.711 712.348 747.143C706.705 760.773 701.334 774.509 696.235 788.352C689.794 785.029 683.835 780.16 677.974 775.918C667.571 768.388 657.295 760.741 646.435 753.876C656.442 732.407 664.168 709.895 674.423 688.524Z" fill="#000002"/>
<path d="M685.697 508.87C700.456 515.71 714.755 523.741 729.257 531.127C721.718 547.338 715.315 564.059 708.821 580.71C705.66 588.816 702.857 597.265 699.132 605.123L698.269 605.387C683.402 597.098 668.459 588.95 653.439 580.942C664.601 557.071 674.709 532.792 685.697 508.87Z" fill="#000002"/>
<path d="M651.763 584.783C666.9 592.885 681.937 601.168 696.875 609.632C690.701 627.695 682.915 645.405 675.62 663.059C673.621 667.897 671.308 675.549 668.786 679.662L668.177 679.53C652.743 670.187 637.513 659.533 621.593 651.135C626.35 639.569 631.986 628.307 637.23 616.953C642.166 606.268 646.727 595.428 651.763 584.783Z" fill="#000002"/>
<path d="M619.996 654.907C633.916 665.39 652.421 673.361 667.063 683.915C658.629 705.486 648.497 726.362 639.884 747.873C638.161 748.117 598.428 719.289 593.27 715.831C601.668 695.39 610.835 675.016 619.996 654.907Z" fill="#000002"/>
<path d="M129.537 106.651C136.009 110.717 142.249 115.159 148.679 119.293L243.581 180.962L449.195 313.433C417.64 373.659 386.498 434.098 355.77 494.75C353.243 499.86 350.759 504.979 347.904 509.917C335.549 503.218 323.927 494.928 312.08 487.38L264.158 457.399C220.183 429.189 176.049 401.231 131.754 373.526C104.769 356.311 78.1669 338.39 50.6804 321.976C58.9402 301.41 65.2422 280.034 72.7765 259.194C83.0779 230.7 94.0039 202.402 104.565 173.999C112.685 151.474 121.009 129.025 129.537 106.651Z" fill="#FEFEFE"/>
<path d="M135.09 118.19C143.487 122.184 151.487 127.908 159.366 132.858C171.856 140.788 184.428 148.586 197.081 156.253C189.37 179.891 180.398 203.259 172.083 226.706L109.673 188.001C117.771 164.594 126.243 141.324 135.09 118.19Z" fill="#000002"/>
<path d="M272.89 206.885C281.126 211.128 289.199 217.179 296.995 222.22C309.879 230.552 322.947 238.646 335.589 247.341C332.704 254.611 329.149 261.674 325.938 268.81L307.477 309.773L306.664 311.045C304.925 311.058 252.948 277.901 247 274.043C249.593 265.731 253.261 257.535 256.384 249.395C261.736 235.167 267.238 220.997 272.89 206.885Z" fill="#000002"/>
<path d="M107.949 192.426C120.358 200.241 132.98 207.715 145.378 215.546C153.657 220.775 161.679 226.66 170.373 231.186C166.376 244.257 161.137 257.073 156.663 270.004C154.354 276.674 150.383 291.352 147.278 296.769C126.265 283.641 105.174 270.64 84.0052 257.767C91.1012 235.793 99.6239 213.969 107.949 192.426Z" fill="#000002"/>
<path d="M206.336 162.924C214.074 166.655 221.497 172.027 228.702 176.707C240.721 184.428 252.662 192.27 264.524 200.231C255.413 222.811 246.483 245.462 237.735 268.185C236.275 268.467 185.371 235.122 180.158 231.679C188.529 208.647 198.177 186.05 206.336 162.924Z" fill="#000002"/>
<path d="M82.3912 261.689C89.8765 265.408 96.8902 270.231 103.979 274.637C117.882 283.252 131.679 292.034 145.37 300.982C138.844 322.125 131.228 343.264 123.574 364.019C102.546 350.107 80.9452 337.15 59.8433 323.355C62.3535 314.623 65.7755 306.07 68.8781 297.535C73.2586 285.485 77.4892 273.549 82.3912 261.689Z" fill="#000002"/>
<path d="M244.513 279.179C252.122 283 259.441 288.252 266.661 292.797C279.06 300.658 291.561 308.355 304.163 315.887C295.193 336.653 285.621 357.16 276.497 377.855L275.832 378.776C273.783 378.517 224.358 346.573 218.481 342.942L244.513 279.179Z" fill="#000002"/>
<path d="M177.81 236.405C197.388 248.19 216.653 260.465 235.606 273.232C228.042 294.746 219.312 315.834 211.068 337.092L210.433 337.2C191.742 325.416 172.034 314.104 154.48 300.683L177.81 236.405Z" fill="#000002"/>
<path d="M152.43 305.505C159.745 309.193 166.803 314.34 173.758 318.736C185.504 326.162 197.91 333.362 208.928 341.807C204.955 353.495 200.236 364.997 195.876 376.549C192.517 385.448 189.521 394.472 186.157 403.365C176.321 397.594 166.761 391.18 157.112 385.095C147.914 379.295 138.388 373.739 129.674 367.224C132.182 359.104 135.518 351.143 138.442 343.157C143.048 330.58 147.467 317.947 152.43 305.505Z" fill="#000002"/>
<path d="M216.961 346.936C236.232 357.954 254.675 370.927 273.557 382.658C265.669 402.574 255.504 421.679 248.084 441.786L247.893 442.179C245.235 442.281 198.508 411.645 192.882 407.39C196.38 397.409 200.584 387.585 204.486 377.749C208.565 367.466 212.417 357.022 216.961 346.936Z" fill="#000002"/>
<path d="M310.777 320.686C318.12 324.615 325.053 329.728 332.049 334.268C340.737 339.907 349.616 345.256 358.197 351.058C354.886 358.219 351.015 365.091 347.454 372.127L328.316 410.345C327.749 411.292 328.156 410.964 327.078 411.306C321.741 408.964 316.422 404.843 311.471 401.707C301.725 395.65 292.019 389.528 282.354 383.341C286.313 373.263 291.218 363.455 295.751 353.622C300.804 342.661 305.569 331.576 310.777 320.686Z" fill="#000002"/>
<path d="M342.958 253.701C350.964 257.765 358.718 263.405 366.319 268.233C374.145 273.204 382.369 277.834 389.879 283.259C379.597 303.386 369.757 323.728 360.359 344.283C358.825 344.447 320.012 319.024 314.187 315.882C323.477 295.058 333.257 274.34 342.958 253.701Z" fill="#000002"/>
<path d="M397.428 288.352C401.693 291.575 406.69 293.995 411.226 296.843C421.508 303.299 431.665 310.044 442.376 315.774C430.844 335.565 420.849 356.34 410.477 376.756C409.674 376.938 409.389 376.779 408.614 376.423C403.887 374.248 398.968 370.172 394.604 367.295C385.278 361.11 375.824 355.128 366.242 349.348C370.927 342.6 374.374 334.952 378.03 327.617C384.53 314.576 390.72 301.272 397.428 288.352Z" fill="#000002"/>
<path d="M363.188 354.245C369.794 358.765 376.696 362.842 383.472 367.101C391.563 372.187 399.583 377.452 407.88 382.199C397.799 402.321 386.941 422.023 377.018 442.23L376.27 442.586C361.74 434.168 347.244 424.94 333.33 415.541C342.97 394.985 354.6 375.289 363.188 354.245Z" fill="#000002"/>
<path d="M280.162 387.565C295.571 396.291 310.607 406.022 325.261 415.958C323.152 421.318 320.232 426.412 317.687 431.577C310.974 445.196 303.762 458.664 297.472 472.475L297.014 473.47C294.042 473.366 259.405 450.038 253.994 446.424C256.994 439.171 260.481 432.119 263.509 424.865C268.689 412.452 273.533 399.266 280.162 387.565Z" fill="#000002"/>
<path d="M330.993 419.746C345.616 428.677 360.485 437.363 374.763 446.834C364.34 465.344 354.779 484.963 345.855 504.226C343.279 504.213 307.11 480.042 302.743 477.333C311.892 458.042 321.587 438.92 330.993 419.746Z" fill="#000002"/>
<path d="M549.642 386.379C555.982 390.259 562.639 393.479 568.875 397.58C592.976 413.431 610.898 433.928 627.498 457.222C618.991 466.408 609.759 475.045 600.927 483.929L557.271 528.661C557.009 528.689 556.738 528.819 556.485 528.744C556.031 528.61 549.732 517.71 548.775 516.278C532.478 491.9 506.593 467.572 478.905 456.873C502.954 433.847 526.533 410.349 549.642 386.379Z" fill="#FEFEFE"/>
<path d="M616.334 317.32C621.329 318.897 626.405 321.547 631.1 323.883C632.816 324.751 634.516 325.65 636.199 326.58C637.882 327.51 639.548 328.47 641.197 329.46C642.846 330.451 644.476 331.471 646.087 332.521C647.699 333.57 649.291 334.649 650.863 335.756C652.435 336.864 653.987 338 655.518 339.164C657.049 340.327 658.559 341.519 660.046 342.738C661.534 343.957 662.999 345.202 664.441 346.474C665.884 347.746 667.303 349.044 668.698 350.367C670.093 351.691 671.464 353.04 672.81 354.413C674.157 355.786 675.478 357.184 676.773 358.605C678.068 360.026 679.338 361.471 680.581 362.938C681.824 364.406 683.039 365.896 684.228 367.407C685.417 368.919 686.578 370.452 687.711 372.006C688.844 373.559 689.949 375.133 691.025 376.728C692.101 378.322 693.148 379.935 694.165 381.567C695.182 383.199 696.17 384.849 697.127 386.517C675.743 407.789 653.803 428.841 633.342 450.998C633.007 451.331 632.57 451.481 632.148 451.686C629.208 449.495 620.187 435.317 616.391 430.795C598.97 410.043 577.482 393.828 553.769 381.008C574.147 359.345 596.525 339.559 616.334 317.32Z" fill="#FEFEFE"/>
<path d="M629.972 463.827C630.205 463.985 630.463 464.112 630.672 464.302C632.106 465.606 633.676 469.867 634.559 471.732C643.147 489.874 647.178 508.54 648.534 528.445C644.54 534.914 636.618 542.427 631.454 548.23C622.794 557.961 614.413 568.207 605.281 577.484L604.304 577.139C602.739 574.65 603.026 570.952 602.286 568.073C601.677 565.704 600.465 562.935 598.159 561.771C596.678 561.023 595.002 561.152 593.484 561.691C586.58 564.139 580.436 573.543 577.501 579.907C577.535 584.026 578.674 595.068 576.217 598.038L575.609 597.817C574.392 591.788 575.012 585.304 574.304 579.17C572.508 563.63 566.642 549.373 560.203 535.284C570.438 526.337 579.656 515.36 589.166 505.602C602.788 491.626 616.89 478.335 629.972 463.827Z" fill="#FEFEFE"/>
<path d="M699.567 393.816L700.01 393.981C701.61 395.719 702.523 398.556 703.469 400.733C709.132 413.77 713.438 428.145 713.879 442.42C714.085 449.108 713.264 456.678 710.022 462.643C705.929 470.173 684.318 489.229 676.962 496.535C669.738 503.711 662.828 511.261 655.811 518.641C654.806 517.591 654.875 516.571 654.613 515.176C652.355 494.649 644.921 476.317 635.756 458.015C657.402 437.024 678.408 415.301 699.567 393.816Z" fill="#FEFEFE"/>
<path d="M509.427 378.598C521.217 377.666 531.699 380.179 542.969 383.262C528.04 399.386 511.936 414.835 496.236 430.22C488.05 438.242 480.237 446.699 471.783 454.435L464.861 452.309C452.947 449.513 442.407 449.308 430.379 451.391C448.933 435.255 465.891 416.932 483.541 399.777C490.074 393.427 496.72 385.852 504.133 380.628C505.732 379.501 507.553 379.061 509.427 378.598Z" fill="#FEFEFE"/>
<path d="M584.411 312.21C592.979 311.699 601.381 312.906 609.543 315.473C588.311 335.789 567.806 356.983 547.222 377.959C544.55 376.883 541.817 375.949 539.106 374.975C530.175 372.196 521.142 371.355 511.837 371.915C524.138 360.16 536.129 347.997 548.171 335.973C553.911 330.243 563.973 318.635 570.536 314.97C574.619 312.69 579.853 312.538 584.411 312.21Z" fill="#FEFEFE"/>
<path d="M667.145 517.902C667.185 518.321 667.346 518.747 667.265 519.16C666.486 523.165 658.283 539.278 656.144 544.095C648.83 560.562 642.371 577.46 634.405 593.629C629.786 591.05 625.14 588.52 620.467 586.039L611.18 581.192C618.39 571.183 630.01 560.641 638.406 551.204C648.133 540.271 656.818 528.253 667.145 517.902Z" fill="#FEFEFE"/>
<path d="M602.986 592.065C611.583 596.494 620.232 601.551 628.585 606.466C625.726 612.596 622.954 618.789 619.816 624.782L619.027 624.993L617.691 624.085C608.712 617.652 599.103 612.159 590.082 605.778C594.231 601.046 598.574 596.55 602.986 592.065Z" fill="#FEFEFE"/>
<path d="M399.918 423.658C410.243 428.542 420.137 436.495 429.585 442.951C426.145 446.754 422.37 450.317 418.755 453.957L415.617 456.843C407.844 450.434 399.694 445.326 391.138 440.065C393.83 434.47 396.757 429.001 399.918 423.658Z" fill="#FEFEFE"/>
<path d="M583.552 582.199C587.936 584.127 592.227 586.343 596.54 588.428C594.319 590.817 592.243 593.374 590.118 595.849L583.569 603.583L583.552 582.199Z" fill="#FEFEFE"/>
<path d="M188.6 550.704C194.076 550.218 199.711 550.772 205.17 551.317C249.168 555.714 295.565 584.341 329.343 611.573C382.87 654.728 455.575 739.688 462.886 810.097C464.541 826.042 463.704 843.393 453.063 856.31C442.849 868.711 429.352 871.901 414.051 873.395C359.169 874.779 301.062 838.535 260.237 805.021C208.518 762.564 145.556 682.803 139.125 614.149C137.622 598.113 139.64 579.254 150.474 566.483C159.933 555.333 174.681 551.942 188.6 550.704Z" fill="#000002"/>
<path d="M179.441 556.644C218.089 551.733 270.159 581.262 300.847 602.637C358.002 642.445 411.567 702.328 440.638 766.042C446.877 779.715 452.656 793.694 455.257 808.574C457.711 822.62 458.286 838.776 449.6 850.944C443.235 859.861 433.665 864.069 423.164 865.857C387.436 870.043 338.81 846.504 309.488 827.515C301.554 822.384 293.798 816.997 286.221 811.353C278.643 805.71 271.26 799.822 264.072 793.69C216.793 752.668 162.062 686.33 148.97 623.768C145.66 607.951 144.039 585.477 153.562 571.312C159.773 562.074 168.956 558.713 179.441 556.644Z" fill="#FEFEFE"/>
<path d="M370.278 667.477C396.515 694.122 421.795 731.7 437.536 765.722C444.422 780.604 457.118 808.119 450.895 823.989C449.203 828.303 446.118 831.661 441.838 833.492C437.5 835.348 432.629 835.65 427.971 835.751C409.156 836.156 391.931 830.083 374.867 822.858C338.907 808.189 306.695 784.74 277.936 758.977C279.861 758.977 281.777 758.929 283.694 758.752C293.999 757.798 303.864 752.268 310.383 744.279C317.469 735.594 320.167 725.374 319.131 714.34C327.128 708.079 334.255 700.899 341.623 693.939C351.044 685.038 360.627 676.118 370.278 667.477Z" fill="#000002"/>
<path d="M187.129 560.096C188.13 560.019 189.133 559.965 190.137 559.934C230.269 558.72 285.435 593.321 316.059 617.192C327.087 625.787 337.299 635.104 347.427 644.722C344.076 648.906 340.217 652.785 336.69 656.832C326.317 668.503 316.067 680.281 305.941 692.168L302.296 689.874C298.419 687.763 294.475 686.14 290.147 685.227C279.877 683.061 269.599 685.135 260.825 690.869C249.732 698.118 245.246 709.3 242.588 721.792C237.033 716.543 232.387 709.618 227.842 703.492C205.85 673.846 179.079 627.491 178.014 589.754C177.725 579.519 179.859 567.801 187.129 560.096Z" fill="#000002"/>
<path d="M278.093 690.587C280.548 690.345 283.131 690.269 285.592 690.493C293.677 691.23 300.888 694.969 306.03 701.262C311.437 707.879 313.569 716.007 312.581 724.456C311.572 733.094 307.127 740.63 300.247 745.913C295.185 749.801 285.844 754.133 279.376 753.439C275.041 752.974 271.01 751.372 266.815 750.844L266.01 751.781C264.156 755.164 261.294 758.534 258.617 761.321C256.698 761.999 254.935 762.466 252.881 762.382C249.013 762.224 245.269 760.083 242.709 757.26C239.838 754.095 238.094 749.854 238.494 745.548C239.14 738.585 245.108 732.696 250.146 728.373C249.655 721.198 250.368 714.634 253.61 708.115C256.359 702.586 261.333 696.369 267.322 694.323C271.134 695.485 270.631 693.243 273.603 691.789C274.91 691.149 276.662 690.896 278.093 690.587Z" fill="#000002"/>
<path d="M278.643 695.669C279.075 695.624 279.508 695.59 279.942 695.566C280.375 695.543 280.809 695.53 281.244 695.527C281.679 695.524 282.113 695.533 282.547 695.552C282.981 695.571 283.414 695.6 283.846 695.64C284.279 695.681 284.71 695.731 285.14 695.792C285.57 695.853 285.998 695.925 286.425 696.008C286.852 696.09 287.276 696.183 287.698 696.286C288.12 696.389 288.539 696.503 288.956 696.626C289.372 696.75 289.785 696.884 290.195 697.028C290.605 697.171 291.011 697.325 291.413 697.489C291.816 697.653 292.214 697.827 292.608 698.01C293.001 698.193 293.39 698.386 293.775 698.589C294.159 698.791 294.538 699.003 294.912 699.224C295.286 699.445 295.654 699.675 296.017 699.914C296.38 700.153 296.736 700.401 297.087 700.658C297.438 700.914 297.782 701.179 298.119 701.453C298.456 701.726 298.787 702.008 299.111 702.297C299.435 702.587 299.751 702.885 300.06 703.19C300.369 703.495 300.671 703.807 300.965 704.127C301.259 704.447 301.545 704.774 301.822 705.108C302.1 705.442 302.369 705.783 302.63 706.13C302.891 706.477 303.144 706.831 303.388 707.19C303.631 707.549 303.866 707.915 304.092 708.286C304.318 708.657 304.535 709.034 304.742 709.415C304.949 709.797 305.147 710.184 305.336 710.575C305.524 710.966 305.703 711.362 305.872 711.762C306.041 712.163 306.2 712.567 306.349 712.975C306.498 713.383 306.637 713.794 306.766 714.209C306.895 714.624 307.014 715.041 307.123 715.462C307.232 715.883 307.33 716.306 307.417 716.731C307.505 717.156 307.582 717.584 307.649 718.013C307.716 718.442 307.772 718.873 307.818 719.305C307.864 719.737 307.899 720.17 307.923 720.604C307.948 721.037 307.962 721.471 307.965 721.906C307.968 722.34 307.961 722.774 307.943 723.208C307.924 723.642 307.895 724.075 307.856 724.508C307.817 724.941 307.767 725.372 307.707 725.802C307.646 726.233 307.575 726.661 307.494 727.088C307.412 727.515 307.32 727.939 307.218 728.361C307.115 728.783 307.003 729.202 306.88 729.619C306.757 730.036 306.624 730.449 306.481 730.859C306.338 731.27 306.185 731.676 306.022 732.079C305.859 732.482 305.686 732.88 305.503 733.274C305.32 733.668 305.128 734.057 304.927 734.442C304.725 734.827 304.514 735.206 304.294 735.581C304.073 735.955 303.844 736.324 303.605 736.687C303.367 737.05 303.12 737.407 302.864 737.758C302.608 738.109 302.344 738.454 302.071 738.792C301.798 739.13 301.517 739.461 301.228 739.785C300.939 740.11 300.642 740.427 300.338 740.736C300.033 741.046 299.721 741.348 299.402 741.642C299.082 741.937 298.755 742.223 298.422 742.502C298.089 742.78 297.749 743.05 297.402 743.312C297.055 743.573 296.702 743.826 296.343 744.071C295.984 744.316 295.62 744.551 295.249 744.777C294.878 745.004 294.502 745.221 294.121 745.429C293.74 745.638 293.353 745.836 292.962 746.025C292.571 746.214 292.176 746.394 291.776 746.564C291.376 746.733 290.972 746.893 290.564 747.043C290.157 747.193 289.746 747.333 289.331 747.463C288.916 747.593 288.499 747.713 288.079 747.822C287.658 747.931 287.235 748.03 286.81 748.118C286.385 748.207 285.958 748.285 285.529 748.353C285.1 748.42 284.669 748.477 284.237 748.524C283.804 748.571 283.37 748.607 282.935 748.632C282.5 748.657 282.065 748.672 281.63 748.676C281.195 748.68 280.759 748.673 280.324 748.656C279.889 748.638 279.455 748.61 279.021 748.571C278.588 748.532 278.155 748.483 277.724 748.423C277.293 748.363 276.863 748.292 276.435 748.211C276.007 748.13 275.581 748.038 275.158 747.936C274.735 747.834 274.314 747.722 273.897 747.599C273.479 747.476 273.064 747.343 272.653 747.2C272.242 747.057 271.834 746.903 271.431 746.74C271.027 746.577 270.627 746.404 270.232 746.221C269.837 746.038 269.447 745.846 269.061 745.644C268.675 745.442 268.294 745.231 267.919 745.01C267.544 744.789 267.174 744.56 266.81 744.321C266.446 744.082 266.088 743.834 265.736 743.578C265.384 743.321 265.039 743.056 264.7 742.783C264.361 742.509 264.029 742.227 263.704 741.938C263.379 741.648 263.062 741.35 262.751 741.045C262.44 740.74 262.138 740.427 261.843 740.107C261.548 739.786 261.261 739.459 260.982 739.125C260.703 738.79 260.433 738.449 260.17 738.101C259.908 737.754 259.655 737.4 259.41 737.04C259.165 736.679 258.93 736.313 258.703 735.942C258.476 735.57 258.259 735.193 258.05 734.811C257.842 734.428 257.643 734.041 257.454 733.649C257.265 733.256 257.085 732.86 256.916 732.459C256.746 732.058 256.586 731.653 256.436 731.244C256.287 730.835 256.147 730.423 256.017 730.007C255.888 729.591 255.769 729.172 255.66 728.751C255.551 728.33 255.452 727.906 255.364 727.479C255.276 727.052 255.198 726.624 255.131 726.194C255.064 725.763 255.008 725.332 254.962 724.899C254.916 724.466 254.881 724.032 254.857 723.597C254.832 723.162 254.818 722.727 254.815 722.292C254.812 721.857 254.819 721.421 254.838 720.986C254.856 720.551 254.885 720.117 254.925 719.683C254.964 719.25 255.015 718.817 255.076 718.386C255.137 717.955 255.208 717.525 255.29 717.098C255.372 716.67 255.464 716.244 255.567 715.821C255.67 715.398 255.784 714.978 255.907 714.56C256.03 714.143 256.164 713.729 256.308 713.318C256.452 712.907 256.606 712.499 256.77 712.096C256.934 711.693 257.108 711.294 257.291 710.899C257.475 710.504 257.668 710.113 257.871 709.728C258.074 709.343 258.286 708.963 258.507 708.588C258.728 708.213 258.959 707.844 259.199 707.48C259.438 707.117 259.687 706.759 259.944 706.408C260.201 706.056 260.466 705.711 260.741 705.373C261.015 705.034 261.297 704.703 261.587 704.379C261.878 704.054 262.176 703.737 262.482 703.427C262.788 703.118 263.101 702.816 263.422 702.521C263.743 702.226 264.071 701.94 264.406 701.662C264.741 701.384 265.082 701.114 265.431 700.852C265.779 700.591 266.133 700.338 266.494 700.094C266.855 699.85 267.221 699.615 267.593 699.389C267.965 699.162 268.343 698.945 268.726 698.738C269.109 698.531 269.496 698.333 269.889 698.144C270.281 697.956 270.678 697.777 271.079 697.608C271.481 697.439 271.886 697.28 272.295 697.131C272.704 696.982 273.117 696.844 273.533 696.715C273.949 696.586 274.368 696.468 274.79 696.359C275.211 696.251 275.635 696.153 276.062 696.066C276.489 695.979 276.917 695.902 277.348 695.836C277.778 695.77 278.21 695.714 278.643 695.669Z" fill="#FEFEFE"/>
<path d="M251.273 735.785C254.527 738.751 256.287 743.294 259.755 746.448C257.6 748.732 255.371 750.885 253.065 753.015C249.091 751.615 246.519 749.577 243.748 746.497C245.77 742.62 248.57 739.198 251.273 735.785Z" fill="#FEFEFE"/>
<path d="M351.344 648.829C356.02 651.005 362.553 659.337 366.241 663.254C361.485 668.558 355.645 673.265 350.436 678.158C340.933 687.085 331.58 696.145 321.958 704.948L317.349 709.301C315.675 703.961 313.525 700.216 310.218 695.705C313.831 690.85 318.327 686.542 322.276 681.948C331.863 670.796 341.357 659.636 351.344 648.829Z" fill="#000002"/>
<path d="M278.272 519.722C311.479 518.541 352.642 529.111 380.914 546.843C384.398 543.51 387.778 540.088 391.189 536.682C400.664 527.224 407.643 520.158 421.929 520.264C441.784 520.411 461.129 533.569 474.551 547.246C487.746 560.692 503.193 582.49 502.841 602.276C502.77 606.309 502 610.866 499.954 614.371C496.476 620.328 479.812 633.589 473.745 639.438C487.908 665.125 494.752 692.952 496.15 722.16C497.248 745.103 493.571 769.396 486.808 791.309C484.681 798.201 481.917 804.816 479.594 811.628C473.854 828.462 471.996 839.204 459.308 853.155C463.817 845.763 466.939 837.651 469.428 829.381C476.878 801.882 473.488 781.05 464.81 754.465C440.159 678.937 356.449 594.711 286.534 559.419C260.103 546.077 227.013 536.429 197.445 541.009C189.169 542.291 181.414 545.095 173.493 547.699C205.056 529.076 241.935 520.981 278.272 519.722Z" fill="#000002"/>
<path d="M273.013 526.242C299.61 526.391 321.435 529.581 346.481 538.805C400.44 558.678 448.649 599.59 472.854 652.356C491.971 694.031 495.977 745.563 479.895 788.894C478.887 776.572 476.395 765.042 473.13 753.166C459.947 706.38 424.3 655.208 389.874 621.503C379.157 611.01 368.048 600.558 356.224 591.309C324.479 566.475 285.846 543.474 246.087 534.884C239.1 533.374 231.705 531.996 224.538 532.119L221.095 532.19C224.617 530.173 252.05 527.153 257.548 526.719C262.677 526.314 267.87 526.327 273.013 526.242Z" fill="#FEFEFE"/>
<path d="M417.245 527.109C431.99 526.057 445.359 532.604 456.889 541.335C476.145 555.916 493.024 577.747 496.443 602.187C492.529 598.458 486.935 593.438 481.207 593.578C475.401 593.72 470.839 599.425 467.028 603.241L457.391 612.905C452.012 606.528 447.036 599.894 441.419 593.703C425.179 575.803 407.226 563.083 387.019 550.091C393.666 543.458 402.614 532.751 411.053 528.717C412.978 527.797 415.159 527.474 417.245 527.109Z" fill="#FEFEFE"/>
<path d="M440.133 464.698C454.184 463.833 468.776 469.06 481.14 475.291C515.708 492.712 543.552 527.043 555.565 563.526C562.122 583.438 565.16 610.114 555.166 629.465C550.058 639.356 541.696 646.068 531.123 649.347C513.467 654.823 494.555 648.771 478.807 640.545L485.295 634.863C489.681 630.969 494.091 627.018 498.749 623.45C502.857 620.302 507.54 617.511 511.2 613.845C514.868 610.17 515.745 604.998 515.712 599.964C515.563 577.652 499.028 552.108 483.603 537.066C469.852 523.655 450.169 509.907 430.066 510.385C418.185 510.668 402.594 521.745 394.597 530.161C392.426 525.125 390.603 519.972 389.974 514.499C388.763 503.954 391.597 493.312 398.334 485.054C408.844 472.171 423.992 466.344 440.133 464.698Z" fill="#000002"/>
</svg>
